<svg width="630.02" xmlns="http://www.w3.org/2000/svg" height="628.19" id="screenshot-35e93cc8-bd86-808f-8006-27b6f7458dd3" viewBox="0 0 630.02 628.19" xmlns:xlink="http://www.w3.org/1999/xlink" fill="none" version="1.1"><g id="shape-35e93cc8-bd86-808f-8006-27b6f7458dd3" rx="0" ry="0" style="fill: rgb(0, 0, 0);"><g id="shape-35e93cc8-bd86-808f-8006-27b6f746983e"><g class="fills" id="fills-35e93cc8-bd86-808f-8006-27b6f746983e"><path d="M315.020,12.910C336.980,12.910,358.390,15.270,379.030,19.740C375.650,14.540,371.850,9.410,367.610,4.360C350.360,1.470,332.800,0.000,315.020,0.000C297.240,0.000,279.690,1.460,262.430,4.360C258.190,9.420,254.390,14.550,251.010,19.740C271.650,15.270,293.060,12.910,315.020,12.910ZZ" class="st1" style="fill: rgb(124, 157, 69); fill-opacity: 1;"/></g></g><g id="shape-35e93cc8-bd86-808f-8006-27b6f7483940"><g class="fills" id="fills-35e93cc8-bd86-808f-8006-27b6f7483940"><path d="M630.020,311.240C629.540,270.050,621.230,230.090,605.280,192.400C598.420,176.180,590.280,160.680,580.910,145.970C577.860,141.190,574.690,136.490,571.380,131.870C561.340,117.850,550.120,104.620,537.760,92.260C508.830,63.330,475.140,40.620,437.630,24.750C421.110,17.760,404.160,12.250,386.850,8.210C380.470,6.720,374.050,5.430,367.590,4.350C371.830,9.410,375.630,14.540,379.010,19.730C404.210,58.430,406.450,100.600,398.490,140.430C391.050,140.850,375.740,140.830,359.440,135.530C331.850,126.550,313.870,106.830,305.890,76.880C314.950,73.490,321.400,64.760,321.400,54.520C321.400,41.340,310.720,30.660,297.540,30.660C284.360,30.660,273.680,41.340,273.680,54.520C273.680,66.080,281.910,75.720,292.830,77.910C296.170,91.380,301.160,102.440,307.130,111.510C304.640,112.150,301.890,113.020,299.040,114.210C292.720,116.840,287.230,120.460,282.640,124.920C279.870,123.800,276.850,123.170,273.680,123.170C260.500,123.170,249.820,133.850,249.820,147.030C249.820,160.210,260.500,170.890,273.680,170.890C286.860,170.890,297.540,160.210,297.540,147.030C297.540,141.760,295.830,136.890,292.930,132.940C301.240,125.580,311.210,123.480,315.990,122.880C328.280,136.240,342.790,143.670,355.450,147.790C369.750,152.440,383.260,153.500,392.570,153.500C393.610,153.500,394.590,153.490,395.520,153.460C384.520,196.380,362.970,235.730,347.560,263.880C343.670,270.990,339.990,277.700,337.000,283.520C330.490,296.200,325.420,311.450,321.480,327.540L321.480,246.510C331.520,243.690,338.890,234.480,338.890,223.540C338.890,210.360,328.210,199.680,315.030,199.680C301.850,199.680,291.170,210.360,291.170,223.540C291.170,234.480,298.540,243.700,308.580,246.510L308.580,327.540C304.640,311.450,299.570,296.210,293.060,283.520C290.070,277.700,286.390,270.980,282.500,263.880C251.440,207.170,195.500,105.010,251.030,19.710C254.410,14.510,258.210,9.380,262.450,4.330C255.980,5.420,249.560,6.700,243.190,8.190C225.890,12.230,208.930,17.750,192.410,24.730C154.900,40.600,121.210,63.310,92.280,92.240C79.920,104.600,68.700,117.830,58.660,131.850C55.360,136.460,52.180,141.160,49.130,145.950C39.760,160.660,31.620,176.160,24.760,192.380C8.820,230.070,0.500,270.030,0.020,311.220C0.010,312.480,0.000,313.740,0.000,315.000C0.000,320.890,0.170,326.750,0.480,332.590C2.460,368.910,10.600,404.160,24.750,437.620C40.620,475.130,63.330,508.820,92.260,537.750C121.190,566.680,154.880,589.390,192.390,605.260C215.270,614.940,238.980,621.800,263.300,625.810C269.110,626.770,274.950,627.560,280.820,628.190C282.360,626.770,283.920,625.250,285.470,623.630C287.580,621.430,289.750,618.960,291.910,616.230C301.190,604.530,310.430,587.830,315.010,564.860C319.590,587.830,328.830,604.540,338.110,616.230C340.270,618.960,342.440,621.430,344.550,623.630C346.110,625.250,347.660,626.770,349.200,628.190C355.060,627.560,360.890,626.770,366.690,625.810C391.020,621.800,414.750,614.940,437.630,605.250C475.140,589.380,508.830,566.670,537.760,537.740C566.690,508.810,589.400,475.120,605.270,437.610C619.420,404.150,627.560,368.890,629.540,332.580C629.860,326.740,630.020,320.880,630.020,314.990C630.020,313.730,630.020,312.470,630.020,311.240ZZM607.500,239.210C588.750,227.740,567.960,224.430,555.250,223.550C565.180,205.730,570.690,185.530,576.350,163.580C589.970,186.990,600.540,212.380,607.500,239.210ZZM348.490,289.450C351.400,283.780,355.040,277.140,358.890,270.110C370.490,248.920,385.410,221.670,397.070,191.230C407.930,188.190,438.020,177.280,459.270,145.830C460.960,146.210,462.720,146.420,464.530,146.420C477.710,146.420,488.390,135.740,488.390,122.560C488.390,109.380,477.710,98.700,464.530,98.700C451.350,98.700,440.670,109.380,440.670,122.560C440.670,129.250,443.430,135.300,447.860,139.630C439.120,152.220,427.790,162.470,414.040,170.150C409.890,172.470,406.000,174.260,402.630,175.640C418.330,128.050,424.000,74.240,396.770,24.170C467.250,44.010,527.380,88.830,566.930,148.440C566.240,151.110,565.560,153.730,564.900,156.310C561.790,168.390,558.860,179.760,555.340,190.400C548.370,186.930,536.920,182.080,524.060,180.060C521.450,169.710,512.080,162.040,500.920,162.040C487.740,162.040,477.060,172.720,477.060,185.900C477.060,199.080,487.740,209.760,500.920,209.760C511.590,209.760,520.630,202.750,523.680,193.090C535.010,195.140,545.190,199.710,550.850,202.610C536.760,237.010,512.100,262.470,445.720,277.090C433.130,279.860,421.320,283.990,410.310,289.450C409.130,280.850,408.540,266.300,414.170,251.120C417.390,252.740,421.020,253.650,424.870,253.650C438.050,253.650,448.730,242.970,448.730,229.790C448.730,216.610,438.050,205.930,424.870,205.930C411.690,205.930,401.010,216.610,401.010,229.790C401.010,234.070,402.140,238.090,404.120,241.560C393.810,264.360,396.380,286.480,398.310,296.120C383.730,305.160,370.770,316.790,359.540,330.960C343.840,350.780,331.540,375.550,322.890,404.680C325.880,368.460,332.740,320.150,348.490,289.450ZZM233.270,24.150C206.050,74.220,211.710,128.030,227.410,175.620C224.040,174.250,220.150,172.460,216.000,170.130C202.250,162.450,190.920,152.210,182.180,139.610C186.620,135.280,189.370,129.230,189.370,122.540C189.370,109.360,178.690,98.680,165.510,98.680C152.330,98.680,141.650,109.360,141.650,122.540C141.650,135.720,152.330,146.400,165.510,146.400C167.320,146.400,169.080,146.190,170.770,145.810C192.020,177.260,222.110,188.160,232.970,191.210C244.620,221.660,259.540,248.910,271.150,270.090C275.000,277.120,278.640,283.760,281.550,289.430C297.310,320.120,304.170,368.430,307.160,404.650C298.510,375.520,286.210,350.750,270.510,330.930C259.280,316.760,246.330,305.130,231.740,296.090C233.670,286.450,236.240,264.330,225.930,241.530C227.900,238.060,229.040,234.040,229.040,229.760C229.040,216.580,218.360,205.900,205.180,205.900C192.000,205.900,181.320,216.580,181.320,229.760C181.320,242.940,192.000,253.620,205.180,253.620C209.030,253.620,212.660,252.700,215.880,251.090C221.510,266.270,220.930,280.820,219.740,289.420C208.740,283.970,196.920,279.840,184.330,277.060C117.950,262.440,93.290,236.970,79.200,202.570C84.850,199.660,95.010,195.090,106.370,193.050C109.420,202.720,118.450,209.730,129.130,209.730C142.310,209.730,152.990,199.050,152.990,185.870C152.990,172.690,142.310,162.010,129.130,162.010C117.970,162.010,108.600,169.680,105.990,180.030C93.130,182.040,81.680,186.890,74.710,190.360C71.190,179.720,68.260,168.350,65.150,156.270C64.490,153.700,63.810,151.070,63.120,148.400C102.670,88.790,162.800,43.970,233.270,24.150ZZM53.690,163.570C59.360,185.520,64.860,205.720,74.790,223.540C62.080,224.430,41.290,227.730,22.540,239.200C29.500,212.370,40.070,186.970,53.690,163.570ZZM276.610,614.240C276.480,614.380,276.350,614.510,276.210,614.650C138.600,596.930,29.700,486.260,14.680,347.840C28.620,361.440,43.970,372.730,60.960,381.940C79.490,391.980,100.240,399.750,124.620,405.700C116.490,408.730,109.560,412.880,103.930,418.070C101.340,417.110,98.540,416.580,95.620,416.580C82.440,416.580,71.760,427.260,71.760,440.440C71.760,453.620,82.440,464.300,95.620,464.300C108.800,464.300,119.480,453.620,119.480,440.440C119.480,434.970,117.640,429.940,114.550,425.920C120.020,421.440,126.970,418.060,135.350,415.820C148.480,412.300,160.610,412.910,162.160,413.010C163.120,413.160,164.070,413.300,165.040,413.440C208.840,419.880,241.190,431.090,263.930,447.700C291.600,467.920,305.050,496.020,305.050,533.630C305.050,567.150,295.480,594.270,276.610,614.240ZZM271.550,437.280C247.070,419.400,212.850,407.420,166.920,400.670C96.060,390.250,49.180,368.410,13.160,327.620C12.990,323.440,12.900,319.250,12.900,315.030C12.900,295.730,14.720,276.850,18.200,258.540C40.490,238.140,72.930,236.250,82.930,236.180C97.900,256.300,121.000,272.710,160.360,284.280C157.020,287.310,152.530,290.880,146.990,294.170C131.850,303.170,115.510,306.430,98.330,303.920C98.300,290.770,87.630,280.110,74.470,280.110C61.310,280.110,50.610,290.790,50.610,303.970C50.610,317.150,61.290,327.830,74.470,327.830C83.080,327.830,90.630,323.270,94.820,316.430C99.830,317.250,104.630,317.620,109.210,317.620C121.490,317.620,132.180,315.000,141.010,311.470C151.530,320.890,157.120,330.260,160.040,338.050C153.200,342.250,148.630,349.790,148.630,358.410C148.630,371.590,159.310,382.270,172.490,382.270C185.670,382.270,196.350,371.590,196.350,358.410C196.350,345.230,185.670,334.550,172.490,334.550C172.490,334.550,172.480,334.550,172.470,334.550C169.370,325.800,163.670,315.600,153.370,305.390C153.600,305.250,153.840,305.120,154.060,304.980C164.170,298.890,171.180,292.070,174.800,288.120C177.000,288.650,179.240,289.170,181.530,289.680C239.740,302.500,278.770,345.740,297.520,418.210C303.370,440.810,306.230,462.890,307.570,481.110C299.840,463.820,287.810,449.160,271.550,437.280ZZM332.500,418.210C351.250,345.750,390.280,302.500,448.490,289.680C450.780,289.170,453.020,288.650,455.220,288.120C458.830,292.070,465.850,298.890,475.960,304.980C476.190,305.120,476.420,305.250,476.650,305.390C466.350,315.600,460.660,325.800,457.550,334.550C457.550,334.550,457.540,334.550,457.530,334.550C444.350,334.550,433.670,345.230,433.670,358.410C433.670,371.590,444.350,382.270,457.530,382.270C470.710,382.270,481.390,371.590,481.390,358.410C481.390,349.790,476.820,342.250,469.980,338.050C472.900,330.260,478.490,320.890,489.010,311.470C497.840,315.000,508.530,317.620,520.810,317.620C525.390,317.620,530.200,317.250,535.200,316.430C539.400,323.270,546.940,327.830,555.550,327.830C568.730,327.830,579.410,317.150,579.410,303.970C579.410,290.790,568.730,280.110,555.550,280.110C542.370,280.110,531.720,290.770,531.690,303.920C514.500,306.430,498.160,303.170,483.030,294.170C477.500,290.880,473.010,287.310,469.660,284.280C509.020,272.710,532.120,256.300,547.090,236.170C557.070,236.220,589.450,238.050,611.820,258.530C615.300,276.830,617.120,295.720,617.120,315.020C617.120,319.240,617.030,323.440,616.860,327.610C580.840,368.400,533.970,390.240,463.100,400.660C417.170,407.410,382.950,419.390,358.470,437.270C342.200,449.160,330.170,463.810,322.430,481.100C323.770,462.880,326.630,440.800,332.500,418.210ZZM353.820,614.660C334.680,594.660,324.980,567.400,324.980,533.640C324.980,496.030,338.430,467.920,366.100,447.710C388.840,431.100,421.190,419.890,464.990,413.450C465.960,413.310,466.910,413.160,467.870,413.020C469.420,412.920,481.550,412.310,494.680,415.830C503.060,418.080,510.000,421.450,515.480,425.930C512.390,429.950,510.550,434.990,510.550,440.450C510.550,453.630,521.230,464.310,534.410,464.310C547.590,464.310,558.270,453.630,558.270,440.450C558.270,427.270,547.590,416.590,534.410,416.590C531.490,416.590,528.690,417.120,526.100,418.080C520.470,412.890,513.540,408.730,505.410,405.710C529.790,399.760,550.540,391.990,569.070,381.950C586.070,372.740,601.410,361.450,615.350,347.850C600.330,486.280,491.420,596.940,353.820,614.660ZZ" class="st1" style="fill: rgb(124, 157, 69); fill-opacity: 1;"/></g></g></g></svg>