<?xml version="1.0" encoding="UTF-8"?>
<svg id="Capa_1" xmlns="http://www.w3.org/2000/svg" version="1.1" viewBox="0 0 1000 1000">
  <!-- Generator: Adobe Illustrator 29.1.0, SVG Export Plug-In . SVG Version: 2.1.0 Build 142)  -->
  <defs>
    <style>
      .st0 {
        fill: #ffffff;
      }
      .st1 {
        fill: #7c9d45;
      }
    </style>
  </defs>
  <g>
    <path class="st1" d="M500,79.2c21.96,0,43.37,2.36,64.01,6.83-3.38-5.2-7.18-10.33-11.42-15.38-17.25-2.89-34.81-4.36-52.59-4.36s-35.33,1.46-52.59,4.36c-4.24,5.06-8.04,10.19-11.42,15.38,20.64-4.47,42.05-6.83,64.01-6.83Z"/>
    <path class="st1" d="M815,377.53c-.48-41.19-8.79-81.15-24.74-118.84-6.86-16.22-15-31.72-24.37-46.43-3.05-4.78-6.22-9.48-9.53-14.1-10.04-14.02-21.26-27.25-33.62-39.61-28.93-28.93-62.62-51.64-100.13-67.51-16.52-6.99-33.47-12.5-50.78-16.54-6.38-1.49-12.8-2.78-19.26-3.86,4.24,5.06,8.04,10.19,11.42,15.38,25.2,38.7,27.44,80.87,19.48,120.7-7.44.42-22.75.4-39.05-4.9-27.59-8.98-45.57-28.7-53.55-58.65,9.06-3.39,15.51-12.12,15.51-22.36,0-13.18-10.68-23.86-23.86-23.86s-23.86,10.68-23.86,23.86c0,11.56,8.23,21.2,19.15,23.39,3.34,13.47,8.33,24.53,14.3,33.6-2.49.64-5.24,1.51-8.09,2.7-6.32,2.63-11.81,6.25-16.4,10.71-2.77-1.12-5.79-1.75-8.96-1.75-13.18,0-23.86,10.68-23.86,23.86s10.68,23.86,23.86,23.86,23.86-10.68,23.86-23.86c0-5.27-1.71-10.14-4.61-14.09,8.31-7.36,18.28-9.46,23.06-10.06,12.29,13.36,26.8,20.79,39.46,24.91,14.3,4.65,27.81,5.71,37.12,5.71,1.04,0,2.02-.01,2.95-.04-11,42.92-32.55,82.27-47.96,110.42-3.89,7.11-7.57,13.82-10.56,19.64-6.51,12.68-11.58,27.93-15.52,44.02v-81.03c10.04-2.82,17.41-12.03,17.41-22.97,0-13.18-10.68-23.86-23.86-23.86s-23.86,10.68-23.86,23.86c0,10.94,7.37,20.16,17.41,22.97v81.03c-3.94-16.09-9.01-31.33-15.52-44.02-2.99-5.82-6.67-12.54-10.56-19.64-31.06-56.71-87-158.87-31.47-244.17,3.38-5.2,7.18-10.33,11.42-15.38-6.47,1.09-12.89,2.37-19.26,3.86-17.3,4.04-34.26,9.56-50.78,16.54-37.51,15.87-71.2,38.58-100.13,67.51-12.36,12.36-23.58,25.59-33.62,39.61-3.3,4.61-6.48,9.31-9.53,14.1-9.37,14.71-17.51,30.21-24.37,46.43-15.94,37.69-24.26,77.65-24.74,118.84-.01,1.26-.02,2.52-.02,3.78,0,5.89.17,11.75.48,17.59,1.98,36.32,10.12,71.57,24.27,105.03,15.87,37.51,38.58,71.2,67.51,100.13,28.93,28.93,62.62,51.64,100.13,67.51,22.88,9.68,46.59,16.54,70.91,20.55,5.81.96,11.65,1.75,17.52,2.38,1.54-1.42,3.1-2.94,4.65-4.56,2.11-2.2,4.28-4.67,6.44-7.4,9.28-11.7,18.52-28.4,23.1-51.37,4.58,22.97,13.82,39.68,23.1,51.37,2.16,2.73,4.33,5.2,6.44,7.4,1.56,1.62,3.11,3.14,4.65,4.56,5.86-.63,11.69-1.42,17.49-2.38,24.33-4.01,48.06-10.87,70.94-20.56,37.51-15.87,71.2-38.58,100.13-67.51,28.93-28.93,51.64-62.62,67.51-100.13,14.15-33.46,22.29-68.72,24.27-105.03.32-5.84.48-11.7.48-17.59,0-1.26,0-2.52-.02-3.78ZM792.48,305.5c-18.75-11.47-39.54-14.78-52.25-15.66,9.93-17.82,15.44-38.02,21.1-59.97,13.62,23.41,24.19,48.8,31.15,75.64ZM533.47,355.74c2.91-5.67,6.55-12.31,10.4-19.34,11.6-21.19,26.52-48.44,38.18-78.88,10.86-3.04,40.95-13.95,62.2-45.4,1.69.38,3.45.59,5.26.59,13.18,0,23.86-10.68,23.86-23.86s-10.68-23.86-23.86-23.86-23.86,10.68-23.86,23.86c0,6.69,2.76,12.74,7.19,17.07-8.74,12.59-20.07,22.84-33.82,30.52-4.15,2.32-8.04,4.11-11.41,5.49,15.7-47.59,21.37-101.4-5.86-151.47,70.48,19.84,130.61,64.66,170.16,124.27-.69,2.67-1.37,5.29-2.03,7.87-3.11,12.08-6.04,23.45-9.56,34.09-6.97-3.47-18.42-8.32-31.28-10.34-2.61-10.35-11.98-18.02-23.14-18.02-13.18,0-23.86,10.68-23.86,23.86s10.68,23.86,23.86,23.86c10.67,0,19.71-7.01,22.76-16.67,11.33,2.05,21.51,6.62,27.17,9.52-14.09,34.4-38.75,59.86-105.13,74.48-12.59,2.77-24.4,6.9-35.41,12.36-1.18-8.6-1.77-23.15,3.86-38.33,3.22,1.62,6.85,2.53,10.7,2.53,13.18,0,23.86-10.68,23.86-23.86s-10.68-23.86-23.86-23.86-23.86,10.68-23.86,23.86c0,4.28,1.13,8.3,3.11,11.77-10.31,22.8-7.74,44.92-5.81,54.56-14.58,9.04-27.54,20.67-38.77,34.84-15.7,19.82-28,44.59-36.65,73.72,2.99-36.22,9.85-84.53,25.61-115.22ZM418.25,90.44c-27.22,50.07-21.56,103.88-5.86,151.47-3.37-1.37-7.26-3.16-11.41-5.49-13.75-7.68-25.08-17.92-33.82-30.52,4.44-4.33,7.19-10.38,7.19-17.07,0-13.18-10.68-23.86-23.86-23.86s-23.86,10.68-23.86,23.86,10.68,23.86,23.86,23.86c1.81,0,3.57-.21,5.26-.59,21.25,31.45,51.34,42.35,62.2,45.4,11.65,30.45,26.57,57.7,38.18,78.88,3.85,7.03,7.49,13.67,10.4,19.34,15.76,30.69,22.62,79,25.61,115.22-8.65-29.13-20.95-53.9-36.65-73.72-11.23-14.17-24.18-25.8-38.77-34.84,1.93-9.64,4.5-31.76-5.81-54.56,1.97-3.47,3.11-7.49,3.11-11.77,0-13.18-10.68-23.86-23.86-23.86s-23.86,10.68-23.86,23.86,10.68,23.86,23.86,23.86c3.85,0,7.48-.92,10.7-2.53,5.63,15.18,5.05,29.73,3.86,38.33-11-5.45-22.82-9.58-35.41-12.36-66.38-14.62-91.04-40.09-105.13-74.49,5.65-2.91,15.81-7.48,27.17-9.52,3.05,9.67,12.08,16.68,22.76,16.68,13.18,0,23.86-10.68,23.86-23.86s-10.68-23.86-23.86-23.86c-11.16,0-20.53,7.67-23.14,18.02-12.86,2.01-24.31,6.86-31.28,10.33-3.52-10.64-6.45-22.01-9.56-34.09-.66-2.57-1.34-5.2-2.03-7.87,39.55-59.61,99.68-104.43,170.16-124.27ZM238.67,229.86c5.67,21.95,11.17,42.15,21.1,59.97-12.71.89-33.5,4.19-52.25,15.66,6.96-26.83,17.53-52.23,31.15-75.64ZM461.59,680.53c-.13.14-.26.27-.4.41-137.61-17.72-246.51-128.39-261.53-266.81,13.94,13.6,29.29,24.89,46.28,34.1,18.53,10.04,39.28,17.81,63.66,23.76-8.13,3.03-15.06,7.18-20.69,12.37-2.59-.96-5.39-1.49-8.31-1.49-13.18,0-23.86,10.68-23.86,23.86s10.68,23.86,23.86,23.86,23.86-10.68,23.86-23.86c0-5.47-1.84-10.5-4.93-14.52,5.47-4.48,12.42-7.86,20.8-10.1,13.13-3.52,25.26-2.91,26.81-2.81.96.15,1.91.29,2.88.43,43.8,6.44,76.15,17.65,98.89,34.26,27.67,20.22,41.12,48.32,41.12,85.93,0,33.52-9.57,60.64-28.45,80.61ZM456.53,503.57c-24.48-17.88-58.7-29.86-104.63-36.61-70.86-10.42-117.74-32.26-153.76-73.05-.17-4.18-.26-8.37-.26-12.59,0-19.3,1.82-38.18,5.3-56.49,22.29-20.4,54.73-22.29,64.73-22.36,14.97,20.12,38.07,36.53,77.43,48.1-3.34,3.03-7.83,6.6-13.37,9.89-15.14,9-31.48,12.26-48.66,9.75-.03-13.15-10.7-23.81-23.86-23.81s-23.86,10.68-23.86,23.86,10.68,23.86,23.86,23.86c8.61,0,16.16-4.56,20.35-11.4,5.01.82,9.81,1.19,14.39,1.19,12.28,0,22.97-2.62,31.8-6.15,10.52,9.42,16.11,18.79,19.03,26.58-6.84,4.2-11.41,11.74-11.41,20.36,0,13.18,10.68,23.86,23.86,23.86s23.86-10.68,23.86-23.86-10.68-23.86-23.86-23.86c0,0-.01,0-.02,0-3.1-8.75-8.8-18.95-19.1-29.16.23-.14.47-.27.69-.41,10.11-6.09,17.12-12.91,20.74-16.86,2.2.53,4.44,1.05,6.73,1.56,58.21,12.82,97.24,56.06,115.99,128.53,5.85,22.6,8.71,44.68,10.05,62.9-7.73-17.29-19.76-31.95-36.04-43.83ZM517.48,484.5c18.75-72.46,57.78-115.71,115.99-128.53,2.29-.51,4.53-1.03,6.73-1.56,3.61,3.95,10.63,10.77,20.74,16.86.23.14.46.27.69.41-10.3,10.21-15.99,20.41-19.1,29.16,0,0-.01,0-.02,0-13.18,0-23.86,10.68-23.86,23.86s10.68,23.86,23.86,23.86,23.86-10.68,23.86-23.86c0-8.62-4.57-16.16-11.41-20.36,2.92-7.79,8.51-17.16,19.03-26.58,8.83,3.53,19.52,6.15,31.8,6.15,4.58,0,9.39-.37,14.39-1.19,4.2,6.84,11.74,11.4,20.35,11.4,13.18,0,23.86-10.68,23.86-23.86s-10.68-23.86-23.86-23.86-23.83,10.66-23.86,23.81c-17.19,2.51-33.53-.75-48.66-9.75-5.53-3.29-10.02-6.86-13.37-9.89,39.36-11.57,62.46-27.98,77.43-48.11,9.98.05,42.36,1.88,64.73,22.36,3.48,18.3,5.3,37.19,5.3,56.49,0,4.22-.09,8.42-.26,12.59-36.02,40.79-82.89,62.63-153.76,73.05-45.93,6.75-80.15,18.73-104.63,36.61-16.27,11.89-28.3,26.54-36.04,43.83,1.34-18.22,4.2-40.3,10.05-62.9ZM538.8,680.95c-19.14-20-28.84-47.26-28.84-81.02,0-37.61,13.45-65.72,41.12-85.93,22.74-16.61,55.09-27.82,98.89-34.26.97-.14,1.92-.29,2.88-.43,1.55-.1,13.68-.71,26.81,2.81,8.38,2.25,15.32,5.62,20.8,10.1-3.09,4.02-4.93,9.06-4.93,14.52,0,13.18,10.68,23.86,23.86,23.86s23.86-10.68,23.86-23.86-10.68-23.86-23.86-23.86c-2.92,0-5.72.53-8.31,1.49-5.63-5.19-12.56-9.35-20.69-12.37,24.38-5.95,45.13-13.72,63.66-23.76,17-9.21,32.34-20.5,46.28-34.1-15.02,138.43-123.93,249.09-261.54,266.81Z"/>
  </g>
  <g>
    <path class="st0" d="M260.19,849.64c0-13.96-3.16-24.81-9.49-32.52-6.33-7.71-16.2-11.57-29.63-11.57-8.56,0-16.17,1.66-22.8,4.98-6.64,3.32-12.09,8.12-16.38,14.41-4.28,6.29-7.2,13.95-8.74,22.97h-.69v-99.29s.01,0,.01,0c0,0-6.07-11.42-17.43-11.89-11.36-.48-24.28,9.26-31.3-4.29,0,0-.86,11.78,11.69,19.68,5.53,3.48,13.37,3.21,20.41,1.83l-.05,9.01v154.16h-24.77v14.35h63.31v-14.35h-21.87v-44.56c0-11.03,1.91-20.47,5.73-28.3,3.82-7.83,8.97-13.81,15.45-17.94,6.48-4.13,13.77-6.19,21.87-6.19,9.64,0,16.72,2.86,21.24,8.56,4.51,5.71,6.77,13.58,6.77,23.61v64.81h-21.76v14.35h62.04v-14.35h-23.61v-67.48Z"/>
    <path class="st0" d="M407.41,847.55c0-9.64-1.85-17.51-5.56-23.61-3.7-6.09-9.16-10.63-16.38-13.6-7.22-2.97-16.15-4.46-26.79-4.46s-18.81,1.33-25.87,3.99c-7.06,2.66-12.71,6.68-16.96,12.04-4.24,5.36-7.14,12.09-8.68,20.2l15.97,3.36c1.85-8.1,5.57-14.18,11.17-18.23,5.59-4.05,13.52-6.08,23.78-6.08,6.87,0,12.73.97,17.59,2.89,4.86,1.93,8.58,4.9,11.17,8.91,2.58,4.01,3.88,9.18,3.88,15.51v4.88l-50.46,10.75c-12.96,2.7-22.38,6.73-28.24,12.09-5.86,5.36-8.8,13.14-8.8,23.32,0,11.03,3.32,19.39,9.95,25.06,6.64,5.67,16.36,8.51,29.17,8.51,13.66,0,24.52-3.55,32.58-10.65,8.06-7.1,13.06-17.09,14.99-29.98h.81v27.55c0,3.63.83,6.44,2.49,8.45,1.66,2.01,4.07,3.01,7.23,3.01h25.12v-14.35h-18.17v-69.56ZM385.42,894.55c-4.01,7.95-9.53,13.97-16.55,18.05-7.02,4.09-14.97,6.13-23.84,6.13-8.03,0-14.12-1.68-18.29-5.04-4.17-3.36-6.25-8.43-6.25-15.22,0-6.25,1.87-11.09,5.61-14.53,3.74-3.43,9.39-6.04,16.96-7.81l48.38-10.95c0,11.63-2.01,21.42-6.02,29.35Z"/>
    <polygon class="st0" points="512.96 822.56 537.04 822.56 500.6 913.99 499.64 913.99 461.46 822.56 485.53 822.56 485.53 808.2 429.63 808.2 429.63 822.56 443.4 822.56 490.28 931.47 508.33 931.47 553.7 822.56 567.59 822.56 567.59 808.2 512.96 808.2 512.96 822.56"/>
    <path class="st0" d="M852.54,917.11v-66.67c0-14.12-3.3-25.06-9.9-32.81-6.6-7.75-16.61-11.63-30.03-11.63-8.49,0-15.99,1.56-22.51,4.69-6.52,3.12-11.86,7.64-16.03,13.54s-6.98,13.06-8.45,21.47h-.81v-37.5h-42.01v14.35h25.35v94.56h-25.35v14.35h64v-14.35h-21.99v-46.76c0-10.65,1.89-19.71,5.67-27.2,3.78-7.48,8.91-13.19,15.39-17.13,6.48-3.94,13.69-5.9,21.64-5.9,9.8,0,16.97,2.89,21.53,8.68,4.55,5.79,6.83,13.74,6.83,23.84v64.47h-21.64v14.35h62.04v-14.35h-23.73Z"/>
    <path class="st0" d="M698.27,856.42c-2.72-12.2-7.5-22.44-14.32-30.72-6.83-8.28-15.24-14.07-25.22-17.38-9.99-3.3-21.01-3.61-33.05-.93-11.97,2.67-21.87,7.69-29.67,15.04-7.81,7.36-13.16,16.3-16.07,26.83-2.91,10.53-2.99,21.94-.25,34.21,2.71,12.13,7.58,22.28,14.63,30.47,7.05,8.19,15.71,13.91,26,17.14,10.29,3.24,21.65,3.47,34.07.7,9.91-2.21,18.47-5.99,25.69-11.33l-9.47-12.75c-5.39,4.33-11.96,7.35-19.69,9.08-9.11,2.03-17.43,1.8-24.94-.72-7.52-2.51-13.85-6.89-19-13.13-4.2-5.09-7.37-11.16-9.5-18.22l85.67-19.11,15.93-3.55.11-.03c.02-.64-.05-1.37-.2-2.21-.15-.84-.38-1.97-.7-3.4ZM594.89,872.13c-.71-6.58-.34-12.77,1.11-18.57,2.01-8,5.83-14.78,11.47-20.35,5.64-5.57,12.78-9.31,21.44-11.25,8.89-1.98,16.94-1.68,24.15.9,7.22,2.58,13.31,6.97,18.3,13.17,3.89,4.84,6.86,10.52,8.93,17.04l-85.41,19.06Z"/>
  </g>
</svg>
