{
    "asset" : {
        "generator" : "Khronos glTF Blender I/O v1.6.16",
        "version" : "2.0"
    },
    "scene" : 0,
    "scenes" : [
        {
            "name" : "Scene",
            "nodes" : [
                0,
                1
            ]
        }
    ],
    "nodes" : [
        {
            "mesh" : 0,
            "name" : "Rocket",
            "rotation" : [
                0,
                0,
                -0.7071067690849304,
                0.7071068286895752
            ],
            "translation" : [
                0,
                1.051487684249878,
                0
            ]
        },
        {
            "mesh" : 1,
            "name" : "VaultDoor",
            "scale" : [
                0.30629825592041016,
                0.23327814042568207,
                0.23327814042568207
            ],
            "translation" : [
                0.7022246718406677,
                1.5987046957015991,
                0
            ]
        }
    ],
    "materials" : [
        {
            "doubleSided" : true,
            "name" : "Mat2",
            "pbrMetallicRoughness" : {
                "baseColorTexture" : {
                    "index" : 0
                },
                "metallicFactor" : 0,
                "roughnessFactor" : 0.5
            }
        }
    ],
    "meshes" : [
        {
            "name" : "Plane.005",
            "primitives" : [
                {
                    "attributes" : {
                        "POSITION" : 0,
                        "NORMAL" : 1,
                        "TEXCOORD_0" : 2
                    },
                    "indices" : 3,
                    "material" : 0
                }
            ]
        },
        {
            "name" : "Plane.011",
            "primitives" : [
                {
                    "attributes" : {
                        "POSITION" : 4,
                        "NORMAL" : 5,
                        "TEXCOORD_0" : 6
                    },
                    "indices" : 7,
                    "material" : 0
                }
            ]
        }
    ],
    "textures" : [
        {
            "sampler" : 0,
            "source" : 0
        }
    ],
    "images" : [
        {
            "bufferView" : 4,
            "mimeType" : "image/png",
            "name" : "ChocolatePalette"
        }
    ],
    "accessors" : [
        {
            "bufferView" : 0,
            "componentType" : 5126,
            "count" : 4568,
            "max" : [
                0.8342660665512085,
                2.3359720706939697,
                0.8315576910972595
            ],
            "min" : [
                -0.828257143497467,
                -0.334121972322464,
                -0.8309655785560608
            ],
            "type" : "VEC3"
        },
        {
            "bufferView" : 1,
            "componentType" : 5126,
            "count" : 4568,
            "type" : "VEC3"
        },
        {
            "bufferView" : 2,
            "componentType" : 5126,
            "count" : 4568,
            "type" : "VEC2"
        },
        {
            "bufferView" : 3,
            "componentType" : 5123,
            "count" : 7116,
            "type" : "SCALAR"
        },
        {
            "bufferView" : 5,
            "componentType" : 5126,
            "count" : 104,
            "max" : [
                2.000000476837158,
                0.13660860061645508,
                1
            ],
            "min" : [
                5.364418029785156e-07,
                4.76837158203125e-07,
                -0.9999999403953552
            ],
            "type" : "VEC3"
        },
        {
            "bufferView" : 6,
            "componentType" : 5126,
            "count" : 104,
            "type" : "VEC3"
        },
        {
            "bufferView" : 7,
            "componentType" : 5126,
            "count" : 104,
            "type" : "VEC2"
        },
        {
            "bufferView" : 8,
            "componentType" : 5123,
            "count" : 156,
            "type" : "SCALAR"
        }
    ],
    "bufferViews" : [
        {
            "buffer" : 0,
            "byteLength" : 54816,
            "byteOffset" : 0
        },
        {
            "buffer" : 0,
            "byteLength" : 54816,
            "byteOffset" : 54816
        },
        {
            "buffer" : 0,
            "byteLength" : 36544,
            "byteOffset" : 109632
        },
        {
            "buffer" : 0,
            "byteLength" : 14232,
            "byteOffset" : 146176
        },
        {
            "buffer" : 0,
            "byteLength" : 326,
            "byteOffset" : 160408
        },
        {
            "buffer" : 0,
            "byteLength" : 1248,
            "byteOffset" : 160736
        },
        {
            "buffer" : 0,
            "byteLength" : 1248,
            "byteOffset" : 161984
        },
        {
            "buffer" : 0,
            "byteLength" : 832,
            "byteOffset" : 163232
        },
        {
            "buffer" : 0,
            "byteLength" : 312,
            "byteOffset" : 164064
        }
    ],
    "samplers" : [
        {
            "magFilter" : 9728,
            "minFilter" : 9984
        }
    ],
    "buffers" : [
        {
            "byteLength" : 164376,
            "uri" : "data:application/octet-stream;base64,"
        }
    ]
}
